<?xml version="1.0" standalone="no"?>
<!DOCTYPE svg PUBLIC "-//W3C//DTD SVG 20010904//EN"
 "http://www.w3.org/TR/2001/REC-SVG-20010904/DTD/svg10.dtd">
<svg version="1.0" xmlns="http://www.w3.org/2000/svg"
 width="512.000000pt" height="512.000000pt" viewBox="0 0 512.000000 512.000000"
 preserveAspectRatio="xMidYMid meet">

<g transform="translate(0.000000,512.000000) scale(0.100000,-0.100000)"
fill="#000000" stroke="none">
<path d="M2485 5085 c-67 -24 -115 -88 -222 -302 -227 -453 -353 -919 -353
-1304 l0 -120 -92 -93 c-204 -202 -358 -481 -438 -792 -45 -174 -64 -326 -64
-529 -1 -164 1 -184 21 -227 30 -66 96 -108 171 -108 76 0 114 22 182 105 103
126 220 218 354 278 73 34 82 34 100 -2 15 -28 74 -85 96 -93 9 -3 7 -15 -9
-46 -43 -84 -20 -180 54 -223 l35 -21 0 -186 0 -187 -53 -1 c-29 -1 -70 -9
-90 -18 l-38 -15 -40 40 c-64 64 -138 93 -234 93 -65 0 -90 -4 -136 -26 -116
-53 -186 -158 -196 -292 l-6 -73 -62 -46 c-143 -106 -218 -298 -186 -472 17
-92 72 -197 135 -261 62 -62 168 -118 255 -134 73 -14 1709 -14 1782 0 242 46
417 278 395 522 -12 136 -84 265 -192 346 l-65 48 -3 71 c-6 129 -78 237 -195
291 -46 22 -71 26 -136 26 -96 0 -170 -29 -234 -93 l-40 -40 -38 15 c-20 9
-61 17 -90 18 l-53 1 0 187 0 186 35 21 c73 43 95 131 54 221 -15 34 -17 46
-7 49 16 5 89 79 104 106 11 20 12 20 70 -4 137 -55 284 -171 398 -315 46 -57
86 -76 159 -76 73 0 135 39 168 106 22 46 24 60 23 219 0 258 -36 472 -116
703 -88 258 -263 532 -426 669 l-49 42 -6 173 c-8 240 -51 477 -133 740 -82
261 -282 685 -364 769 -64 66 -139 84 -225 54z m147 -111 c18 -17 88 -133 88
-147 0 -4 -72 -7 -160 -7 -88 0 -160 3 -160 7 0 3 15 34 34 67 34 61 57 88 86
99 26 11 91 -1 112 -19z m183 -331 c126 -264 222 -571 272 -868 25 -154 25
-683 0 -895 -46 -387 -154 -806 -223 -871 l-26 -24 -279 0 -279 0 -25 26 c-48
48 -130 312 -179 579 -49 266 -60 410 -61 760 0 293 2 338 23 454 50 288 144
581 267 839 l37 77 218 0 218 0 37 -77z m-885 -1728 c21 -234 90 -591 145
-744 8 -25 12 -47 8 -51 -5 -4 -39 -19 -78 -35 -140 -58 -270 -162 -416 -333
-31 -36 -42 -42 -76 -42 -57 0 -88 33 -97 102 -9 76 -7 177 4 303 37 406 192
787 419 1028 l66 70 7 -84 c4 -46 12 -142 18 -214z m1369 210 c230 -260 370
-628 403 -1055 15 -200 6 -299 -29 -334 -19 -19 -36 -26 -66 -26 -34 0 -45 6
-76 42 -147 172 -267 268 -416 333 -44 19 -79 41 -79 47 1 7 16 60 32 118 41
141 77 314 101 495 19 140 41 371 41 437 0 38 11 31 89 -57z m-510 -1294 c11
-27 21 -61 21 -74 0 -49 -16 -52 -250 -52 -237 0 -250 3 -250 56 0 16 10 49
22 74 l22 45 207 0 207 0 21 -49z m-91 -457 c3 -271 0 -265 90 -246 64 13 118
4 164 -29 27 -20 56 -24 73 -11 6 4 22 25 37 47 34 49 79 80 138 96 160 42
317 -106 284 -268 -5 -27 -8 -55 -6 -64 2 -9 27 -28 57 -43 68 -35 148 -119
183 -193 23 -50 27 -71 27 -153 0 -85 -3 -102 -31 -160 -39 -83 -106 -150
-192 -192 l-67 -33 -895 0 -895 0 -65 31 c-83 39 -155 111 -194 194 -28 58
-31 75 -31 160 0 87 3 101 32 160 36 73 103 144 178 188 l50 29 -3 72 c-4 91
17 156 64 205 68 70 152 91 242 62 46 -16 132 -85 132 -106 0 -16 32 -40 52
-40 11 0 33 9 49 21 48 34 87 41 158 27 93 -18 91 -22 91 247 0 122 3 225 7
229 4 3 66 5 137 4 l131 -3 3 -231z"/>
<path d="M2440 4203 c-256 -89 -328 -422 -131 -606 60 -56 109 -82 189 -97
162 -32 343 71 402 228 27 71 30 177 6 247 -34 101 -122 190 -224 227 -60 22
-182 22 -242 1z m238 -109 c91 -45 143 -130 143 -233 1 -150 -112 -265 -261
-265 -148 0 -262 115 -262 264 0 149 112 260 262 260 51 0 78 -6 118 -26z"/>
</g>
</svg>
