<?xml version="1.0" encoding="UTF-8"?>
<!DOCTYPE svg PUBLIC "-//W3C//DTD SVG 1.1//EN" "http://www.w3.org/Graphics/SVG/1.1/DTD/svg11.dtd">
<svg xmlns="http://www.w3.org/2000/svg" version="1.1" width="512px" height="512px" style="shape-rendering:geometricPrecision; text-rendering:geometricPrecision; image-rendering:optimizeQuality; fill-rule:evenodd; clip-rule:evenodd" xmlns:xlink="http://www.w3.org/1999/xlink">
<g><path style="opacity:0.973" fill="#1570ff" d="M 252.5,0.5 C 260.046,0.0370867 266.546,2.37042 272,7.5C 304.628,59.057 321.295,115.39 322,176.5C 348.3,199.527 365.633,228.193 374,262.5C 380.175,286.86 382.175,311.526 380,336.5C 375.647,348.431 367.147,353.264 354.5,351C 347.076,347.244 341.243,341.744 337,334.5C 327.32,324.07 315.82,316.237 302.5,311C 301.056,310.219 299.723,310.386 298.5,311.5C 296.363,316.803 292.697,320.637 287.5,323C 292.117,329.881 292.617,337.048 289,344.5C 286.933,347.07 284.433,349.07 281.5,350.5C 280.501,362.815 280.168,375.149 280.5,387.5C 286.352,386.861 291.852,387.861 297,390.5C 315.052,372.365 333.385,372.032 352,389.5C 357.854,397.663 360.188,406.663 359,416.5C 383.255,432.262 390.588,453.929 381,481.5C 372.492,497.997 358.992,507.497 340.5,510C 283.833,510.667 227.167,510.667 170.5,510C 140.218,504.389 125.385,486.223 126,455.5C 128.079,437.762 136.912,424.596 152.5,416C 151.209,392.777 162.209,379.61 185.5,376.5C 197.057,377.029 206.557,381.695 214,390.5C 219.148,387.861 224.648,386.861 230.5,387.5C 230.832,375.149 230.499,362.815 229.5,350.5C 218.532,343.446 216.532,334.279 223.5,323C 218.303,320.637 214.637,316.803 212.5,311.5C 211.277,310.386 209.944,310.219 208.5,311C 198.2,315.146 188.867,320.813 180.5,328C 174.167,335 167.833,342 161.5,349C 150.991,353.654 141.824,351.821 134,343.5C 125.465,293.516 135.131,247.182 163,204.5C 170.253,193.911 178.92,184.578 189,176.5C 189.641,114.584 206.808,57.7504 240.5,6C 244.227,3.29863 248.227,1.4653 252.5,0.5 Z"/></g>
<g><path style="opacity:1" fill="#f9fbff" d="M 270.5,27.5 C 260.5,28.8333 250.5,28.8333 240.5,27.5C 242.388,23.3944 244.554,19.3944 247,15.5C 252.667,10.1667 258.333,10.1667 264,15.5C 266.446,19.3944 268.612,23.3944 270.5,27.5 Z"/></g>
<g><path style="opacity:1" fill="#81b2ff" d="M 240.5,27.5 C 250.5,28.8333 260.5,28.8333 270.5,27.5C 271.043,27.56 271.376,27.8933 271.5,28.5C 260.833,29.8333 250.167,29.8333 239.5,28.5C 239.624,27.8933 239.957,27.56 240.5,27.5 Z"/></g>
<g><path style="opacity:1" fill="#93c0ff" d="M 233.5,39.5 C 248.182,39.1674 262.848,39.5007 277.5,40.5C 308.52,101.166 318.353,165.166 307,232.5C 304.238,259.218 297.571,284.884 287,309.5C 285.421,311.041 283.587,312.208 281.5,313C 264.167,313.667 246.833,313.667 229.5,313C 224.309,310.483 221.142,306.317 220,300.5C 204.037,251.086 197.704,200.419 201,148.5C 205.275,110.179 216.108,73.8457 233.5,39.5 Z"/></g>
<g><path style="opacity:1" fill="#1971ff" d="M 249.5,88.5 C 271.83,87.7402 285.997,98.0735 292,119.5C 292.345,148.822 277.845,162.989 248.5,162C 225.655,154.828 216.155,139.328 220,115.5C 225.281,101.38 235.115,92.3797 249.5,88.5 Z"/></g>
<g><path style="opacity:1" fill="#fcfdff" d="M 248.5,99.5 C 264.167,97.7449 275,104.078 281,118.5C 282.833,142 272,152.833 248.5,151C 231.399,143.718 225.899,131.218 232,113.5C 236.174,107.15 241.674,102.484 248.5,99.5 Z"/></g>
<g><path style="opacity:1" fill="#fcfdff" d="M 189.5,190.5 C 191.137,221.119 195.637,251.453 203,281.5C 204.533,287.265 206.366,292.932 208.5,298.5C 186.604,307.279 168.604,321.113 154.5,340C 148.799,341.565 144.633,339.732 142,334.5C 136.655,279.247 152.489,231.247 189.5,190.5 Z"/></g>
<g><path style="opacity:1" fill="#fdfdff" d="M 320.5,190.5 C 341.308,210.757 355.474,235.09 363,263.5C 369.512,287.526 371.179,311.859 368,336.5C 364.95,340.13 361.117,341.297 356.5,340C 342.409,321.117 324.409,307.283 302.5,298.5C 314.3,263.497 320.3,227.497 320.5,190.5 Z"/></g>
<g><path style="opacity:1" fill="#d1e5ff" d="M 234.5,323.5 C 248.516,323.167 262.516,323.501 276.5,324.5C 278.892,328.583 280.058,332.917 280,337.5C 279.167,338.333 278.333,339.167 277.5,340C 262.833,340.667 248.167,340.667 233.5,340C 231.643,338.818 230.643,337.151 230.5,335C 231.979,331.211 233.312,327.377 234.5,323.5 Z"/></g>
<g><path style="opacity:1" fill="#fdfeff" d="M 241.5,351.5 C 250.833,351.5 260.167,351.5 269.5,351.5C 269.333,366.837 269.5,382.17 270,397.5C 271.126,398.944 272.626,399.61 274.5,399.5C 279.143,398.517 283.809,398.35 288.5,399C 292.086,400.767 295.752,402.267 299.5,403.5C 300.5,403.333 301.5,403.167 302.5,403C 310.943,387.956 322.943,384.29 338.5,392C 342.491,394.989 345.324,398.822 347,403.5C 347.424,409.862 347.424,416.195 347,422.5C 369.999,433.49 377.999,451.157 371,475.5C 365.946,486.886 357.446,494.386 345.5,498C 315.372,499.147 285.205,499.647 255,499.5C 225.12,499.651 195.287,499.151 165.5,498C 145.2,490.68 135.7,476.18 137,454.5C 140.542,439.287 149.542,428.62 164,422.5C 163.576,416.195 163.576,409.862 164,403.5C 172.039,387.82 183.872,383.987 199.5,392C 203.257,395.086 206.257,398.752 208.5,403C 209.5,403.167 210.5,403.333 211.5,403.5C 215.134,402.707 218.468,401.207 221.5,399C 226.354,398.38 231.187,398.547 236,399.5C 238.034,399.646 239.701,398.98 241,397.5C 241.5,382.17 241.667,366.837 241.5,351.5 Z"/></g>
</svg>
