<?xml version="1.0" encoding="UTF-8"?>
<svg version="1.1" xmlns="http://www.w3.org/2000/svg" width="512" height="512">
<path d="M0 0 C6.90001898 5.21171646 10.5087352 13.51158762 14.4375 21 C14.9109082 21.8854248 15.38431641 22.77084961 15.87207031 23.68310547 C36.7741634 62.9831795 53.56132686 109.74937078 53.484375 154.8046875 C52.99314466 165.93382898 52.99314466 165.93382898 56.3671875 176.1796875 C58.92871811 178.42202427 61.56990566 180.17190861 64.4375 182 C99.21128824 215.19810096 112.28224525 266.57579577 113.37109375 313.05078125 C113.70423931 335.37153408 113.70423931 335.37153408 107.015625 342.51953125 C102.44405397 346.6080239 98.07181467 348.28666249 92 348.3125 C91.09378906 348.32925781 90.18757812 348.34601563 89.25390625 348.36328125 C82.85957242 347.538492 79.07532428 344.01214489 75 339.3125 C74.51829346 338.7757666 74.03658691 338.2390332 73.5402832 337.68603516 C71.52211191 335.42766184 69.55737697 333.14971419 67.6640625 330.78515625 C59.26325138 320.35876884 43.76301272 309.63260129 30.4375 307 C30.2725 307.86625 30.1075 308.7325 29.9375 309.625 C27.86977112 314.27738998 24.61074313 316.26312893 20.4375 319 C20.9325 320.134375 21.4275 321.26875 21.9375 322.4375 C24.09385023 328.23910896 24.34266346 333.38508334 22.3125 339.25 C20.0052584 342.63395435 17.75552118 344.59972936 14.4375 347 C13.7775 347 13.1175 347 12.4375 347 C12.4375 359.21 12.4375 371.42 12.4375 384 C16.0675 384 19.6975 384 23.4375 384 C27.125 385 27.125 385 29.4375 386 C29.98277344 385.46890625 30.52804687 384.9378125 31.08984375 384.390625 C39.48620874 376.52531216 47.53582146 372.5661585 59.23828125 372.7890625 C68.8813732 373.71397718 77.20668632 378.24440928 83.75 385.3125 C90.37812227 393.76335589 91.4375 402.44804406 91.4375 413 C92.89617405 414.07906011 94.40722286 415.08763971 95.9375 416.0625 C107.86564463 424.22830198 114.07655835 434.73267533 116.9296875 448.78515625 C119.05904312 462.2656153 116.12264304 475.42286218 108.28125 486.63671875 C99.32431887 498.1175309 86.88336239 504.96763498 72.4375 507 C70.07620998 507.09244737 67.71268626 507.13473261 65.34959412 507.14044189 C64.31435697 507.14489858 64.31435697 507.14489858 63.25820595 507.1494453 C60.95785072 507.15807986 58.65754785 507.15963609 56.35717773 507.16113281 C54.70252879 507.16576481 53.04788091 507.17078999 51.39323425 507.17617798 C46.9052569 507.18926979 42.41729448 507.19574099 37.92930102 507.20018864 C35.12069738 507.20312541 32.31209777 507.20723142 29.50349617 507.21169281 C20.70262339 507.22536114 11.90175988 507.23503025 3.10087723 507.2388947 C-7.03297222 507.24336973 -17.1666864 507.2608946 -27.30049473 507.2898953 C-35.14958899 507.31157187 -42.99864536 507.32160221 -50.8477692 507.32293582 C-55.52793044 507.32397985 -60.20796442 507.32980125 -64.88809395 507.34775543 C-69.29666807 507.3643391 -73.70502068 507.36634214 -78.11361504 507.35761642 C-79.72233553 507.35685145 -81.33106844 507.3611167 -82.9397583 507.37107468 C-101.1443763 507.47705905 -115.79832585 504.20244107 -129.33984375 491.34765625 C-138.87071796 481.28077505 -142.94515827 468.78599849 -142.77734375 455.0625 C-141.71127059 439.86611165 -135.65902264 428.29072372 -124.5625 418 C-122.13671875 416.51171875 -122.13671875 416.51171875 -119.9375 415.375 C-117.98074634 414.38378612 -117.98074634 414.38378612 -116.5625 413 C-116.06824427 410.68432039 -116.18816399 408.74227468 -116.390625 406.38671875 C-116.97377749 398.28885123 -113.28994278 391.3312094 -108.5625 385 C-101.61537604 377.33622536 -93.09285234 373.32651762 -82.8125 372.8125 C-71.01464304 373.05552702 -62.21822725 378.25540194 -53.5625 386 C-51.9125 385.34 -50.2625 384.68 -48.5625 384 C-44.9325 384 -41.3025 384 -37.5625 384 C-37.5625 371.79 -37.5625 359.58 -37.5625 347 C-39.2125 346.34 -40.8625 345.68 -42.5625 345 C-45.52381926 342.24806695 -48.36706245 339.02202697 -48.765625 334.8984375 C-48.87799904 328.8489686 -48.0209651 324.53154647 -45.5625 319 C-46.11679688 318.63648438 -46.67109375 318.27296875 -47.2421875 317.8984375 C-47.96664062 317.39570313 -48.69109375 316.89296875 -49.4375 316.375 C-50.15679687 315.88773437 -50.87609375 315.40046875 -51.6171875 314.8984375 C-54.07387522 312.50094707 -54.69036086 310.27740708 -55.5625 307 C-64.34277266 310.02912427 -72.01442293 313.57068141 -79.5625 319 C-80.44421875 319.63421875 -81.3259375 320.2684375 -82.234375 320.921875 C-88.67880113 325.87626041 -93.89706153 331.53797724 -99.06005859 337.77148438 C-107.20651591 347.57073501 -107.20651591 347.57073501 -113.98046875 348.23828125 C-121.21559612 348.43217042 -126.6660683 347.62805503 -132.09375 342.57421875 C-136.35282615 337.78275808 -137.76693809 333.22256413 -138.1875 326.9375 C-138.26226562 325.91527344 -138.33703125 324.89304687 -138.4140625 323.83984375 C-140.41061663 272.19214092 -125.24148447 221.71380004 -90.5625 183 C-87.08672583 179.30090591 -83.79394349 175.82096232 -79.5625 173 C-79.10120297 170.68380221 -79.10120297 170.68380221 -79.15625 167.9609375 C-79.13667236 166.9181665 -79.11709473 165.87539551 -79.09692383 164.80102539 C-79.08556396 163.67043701 -79.0742041 162.53984863 -79.0625 161.375 C-77.72869804 109.44969651 -62.01770117 44.13656614 -28.5625 3 C-20.67348162 -3.9870072 -9.33066206 -5.05479916 0 0 Z " fill="#1370FF" transform="translate(268.5625,4)"/>
<path d="M0 0 C14.52 0 29.04 0 44 0 C65.71934545 43.74896727 77.17834313 88.48417024 77.3125 137.3125 C77.31692612 138.73724136 77.31692612 138.73724136 77.32144165 140.19076538 C77.33142374 154.48109818 76.65244809 168.5979017 75.1875 182.8125 C75.06334213 184.03629868 75.06334213 184.03629868 74.93667603 185.28482056 C73.97435106 194.54906394 72.61114492 203.62773519 70.68530273 212.74047852 C70.12232987 215.41815958 69.62430224 218.08555776 69.18359375 220.78515625 C67.36876857 231.44602794 64.39504595 241.62714256 61 251.875 C60.78471649 252.53283478 60.56943298 253.19066956 60.34762573 253.86843872 C59.72226219 255.7676283 59.08011247 257.66126472 58.4375 259.5546875 C58.06496094 260.65280762 57.69242187 261.75092773 57.30859375 262.88232422 C53.87320366 271.06701291 53.87320366 271.06701291 49.68711853 273.15197754 C46.92080042 274.02499444 44.73842026 274.26537815 41.84594727 274.29052734 C40.84463272 274.30328705 39.84331818 274.31604675 38.81166077 274.32919312 C37.20525978 274.33253159 37.20525978 274.33253159 35.56640625 274.3359375 C34.45571274 274.3425943 33.34501923 274.3492511 32.20066833 274.35610962 C29.85474298 274.36622212 27.50878893 274.37092707 25.1628418 274.37060547 C21.57878173 274.37498013 17.99595182 274.41132053 14.41210938 274.44921875 C12.13021254 274.45508689 9.84830986 274.4590563 7.56640625 274.4609375 C5.96304161 274.48249405 5.96304161 274.48249405 4.32728577 274.50448608 C-1.7457788 274.46728312 -5.42547801 274.14514786 -10 270 C-11.6875 266.99609375 -11.6875 266.99609375 -13 263.4375 C-13.24363281 262.77967529 -13.48726562 262.12185059 -13.73828125 261.4440918 C-14.51727383 259.30410931 -15.2605214 257.153924 -16 255 C-16.2475 254.30487305 -16.495 253.60974609 -16.75 252.89355469 C-25.90322096 227.01901991 -29.3819172 200.16416211 -32 173 C-32.10530029 172.02998047 -32.21060059 171.05996094 -32.3190918 170.06054688 C-33.23880695 160.85849019 -33.18608408 151.63319472 -33.18530273 142.39453125 C-33.18747442 139.53369928 -33.20564598 136.67326338 -33.22460938 133.8125 C-33.25966355 122.12593014 -32.60976725 110.68151172 -31.23924255 99.0760498 C-31.01226844 97.10646052 -30.81686763 95.13330787 -30.62329102 93.16015625 C-27.44055554 60.79776188 -14.41769569 28.83539138 0 0 Z " fill="#93C0FF" transform="translate(234,40)"/>
<path d="M0 0 C9.24 0 18.48 0 28 0 C28.06058594 3.30902344 28.12117187 6.61804688 28.18359375 10.02734375 C28.2453294 13.21771659 28.30873933 16.40805203 28.37231445 19.59838867 C28.41573588 21.82263896 28.45740545 24.04692415 28.49731445 26.27124023 C28.55484306 29.46088195 28.61858684 32.6503468 28.68359375 35.83984375 C28.70866249 37.34139259 28.70866249 37.34139259 28.73423767 38.87327576 C28.75418289 39.79415482 28.77412811 40.71503387 28.79467773 41.66381836 C28.81022202 42.47878281 28.8257663 43.29374725 28.84178162 44.13340759 C28.79913863 46.01409119 28.79913863 46.01409119 30 47 C31.90934366 46.97679251 33.81884695 46.94767916 35.72729492 46.88476562 C43.40662797 46.64711977 48.30113819 46.95540419 55 51 C58.0882504 52.00076997 58.0882504 52.00076997 61 51 C62.72968391 49.12433253 64.12910897 47.15156481 65.55859375 45.0390625 C68.21909601 41.27542516 71.76113056 38.71885427 76 37 C83.82500212 36.17124362 91.61392071 35.90598792 98 41 C101.37817658 44.26456078 104.16821778 47.64711347 106 52 C106.02075195 54.07128906 106.02075195 54.07128906 105.73828125 56.265625 C105.01687226 63.67385568 105.01687226 63.67385568 106 71 C108.96606669 74.08613236 111.74216929 75.50253041 115.59375 77.33203125 C124.39944583 81.64399469 128.739194 90.11325405 132 99 C135.07798566 109.1612988 132.49637823 119.34860591 127.6796875 128.51171875 C121.6601848 138.19884195 112.93255687 144.79247666 101.77494144 147.54988384 C98.47608514 148.08498289 95.3307519 148.13565712 91.98765564 148.14717102 C91.29356285 148.15084771 90.59947006 148.1545244 89.88434416 148.1583125 C87.56473421 148.16930185 85.24516914 148.1731851 82.92553711 148.17700195 C81.25956074 148.1832703 79.59358577 148.18991743 77.9276123 148.19691467 C72.46086595 148.21791718 66.99411944 148.22831503 61.52734375 148.23828125 C59.64147998 148.24233054 57.75561636 148.24644751 55.86975288 148.25063133 C47.00641078 148.26967639 38.14307696 148.28390761 29.27971834 148.2922433 C19.06826901 148.30200677 8.85703697 148.32830592 -1.35433584 148.36874419 C-9.25944384 148.39896858 -17.16448978 148.41371825 -25.06965441 148.41702431 C-29.78505541 148.41936799 -34.50022411 148.42823903 -39.21556282 148.45348549 C-43.65699702 148.47688151 -48.09804788 148.48095345 -52.53952789 148.47072411 C-54.16157499 148.47023139 -55.78364171 148.47647307 -57.40563011 148.49028015 C-71.2203235 148.60121134 -82.57547343 146.76001492 -93 137 C-93.56460938 136.47664062 -94.12921875 135.95328125 -94.7109375 135.4140625 C-102.16690639 127.65531314 -105.40372082 116.54937026 -105.27734375 106.00390625 C-104.31995294 95.63441987 -98.74600945 86.222462 -91.1875 79.25 C-87.11794734 75.87313716 -82.69123884 73.40119399 -78 71 C-78.05800781 69.72125 -78.11601562 68.4425 -78.17578125 67.125 C-78.22271247 65.41670344 -78.268209 63.70836705 -78.3125 62 C-78.35439453 61.16082031 -78.39628906 60.32164062 -78.43945312 59.45703125 C-78.56372988 53.04435051 -77.08245694 48.96097859 -73 44 C-67.82671266 38.7850195 -63.5915815 36.70514827 -56.25 36.625 C-49.14627578 36.75027314 -44.36870179 37.67661707 -39.2578125 42.71875 C-36.9241757 45.35386141 -34.95362896 48.06955656 -33 51 C-28.98788228 51.65313544 -27.31908378 51.20606662 -23.87890625 48.984375 C-19.50454851 46.39004393 -15.58970642 46.57512749 -10.625 46.8125 C-7.74836541 46.90536773 -4.87842501 46.96735807 -2 47 C-0.42926468 45.42926468 -0.83630693 43.84637782 -0.79467773 41.66381836 C-0.77473251 40.7429393 -0.75478729 39.82206024 -0.73423767 38.87327576 C-0.71752518 37.87224319 -0.70081268 36.87121063 -0.68359375 35.83984375 C-0.6524221 34.31043907 -0.6524221 34.31043907 -0.62062073 32.75013733 C-0.55501148 29.47932952 -0.49618766 26.20843863 -0.4375 22.9375 C-0.39432558 20.72590272 -0.35071166 18.51431397 -0.30664062 16.30273438 C-0.19848797 10.86857363 -0.09949927 5.43435376 0 0 Z " fill="#FDFEFF" transform="translate(242,352)"/>
<path d="M0 0 C1.11570052 0.94302401 2.22950934 1.88828636 3.3425293 2.83447266 C3.9629863 3.36062164 4.5834433 3.88677063 5.22270203 4.42886353 C26.42976589 23.17596843 38.05813294 53.69258595 44.6875 80.375 C44.89028564 81.17615234 45.09307129 81.97730469 45.30200195 82.80273438 C48.50755627 96.34770711 49.35595662 110.08922497 49.31567383 123.96142578 C49.31244295 126.29113759 49.33635987 128.61965618 49.36132812 130.94921875 C49.36359556 132.45051926 49.36430721 133.95182313 49.36328125 135.453125 C49.372491 136.13957092 49.38170074 136.82601685 49.39118958 137.53326416 C49.34943064 141.86066425 48.65459026 144.56643407 46 148 C42.24952518 150.50031654 40.44143734 150.53603554 36 150 C32.71359911 147.08171869 29.96640291 143.81114459 27.20996094 140.39550781 C16.54779111 127.25303806 2.19905754 115.93041313 -14.2421875 111.046875 C-16 110 -16 110 -16.859375 107.765625 C-17.02752241 104.45872591 -16.38784334 102.15450446 -15.375 99 C-5.60777272 66.56606942 -2.7333265 33.60629324 0 0 Z " fill="#FCFDFF" transform="translate(321,191)"/>
<path d="M0 0 C0.33 0 0.66 0 1 0 C1.06469482 1.01908447 1.12938965 2.03816895 1.19604492 3.08813477 C3.35399996 36.42689069 5.78267993 71.45658984 17.44482422 103.04931641 C18 105 18 105 18 109 C17.00742188 109.47308594 16.01484375 109.94617188 14.9921875 110.43359375 C-2.80773301 119.04012448 -18.34022927 128.77539743 -30.28125 144.90625 C-32.88606505 148.07938833 -34.83617771 149.82666477 -38.9375 150.4375 C-42.72702289 149.89613959 -44.31673359 148.68326641 -47 146 C-48.21824012 142.34527963 -48.21896913 138.93462222 -48.2734375 135.125 C-48.28592026 134.33642609 -48.29840302 133.54785217 -48.31126404 132.73538208 C-48.55522542 113.55399134 -47.71342091 95.704104 -43 77 C-42.80245117 76.17967285 -42.60490234 75.3593457 -42.40136719 74.51416016 C-39.60762202 63.11481136 -35.11545435 52.53846067 -30 42 C-29.67628418 41.33194336 -29.35256836 40.66388672 -29.01904297 39.97558594 C-21.58656179 24.868794 -11.89445183 11.89445183 0 0 Z " fill="#FDFDFF" transform="translate(190,191)"/>
<path d="M0 0 C6.24639798 3.61353057 11.32754829 9.30223 13.2890625 16.32421875 C14.48696058 26.06794647 12.78733997 33.07680254 7.4140625 41.13671875 C2.83055431 45.855036 -2.410876 48.98514433 -8.98046875 49.66015625 C-16.24215357 49.74021893 -21.67996406 49.54590016 -27.7109375 45.32421875 C-28.5978125 44.76734375 -29.4846875 44.21046875 -30.3984375 43.63671875 C-35.90833393 38.12682232 -38.86740897 31.3692529 -39.0234375 23.69921875 C-38.93780336 15.31563686 -37.07816419 10.71025405 -31.5234375 4.57421875 C-22.44180555 -3.85183892 -11.20184728 -5.06750234 0 0 Z " fill="#FCFDFF" transform="translate(268.7109375,102.67578125)"/>
<path d="M0 0 C7.53576329 5.75871273 13.26684024 14.58065346 15 24 C16.05572692 34.52265521 13.56144055 44.59315429 7 53 C6.46375 53.825 5.9275 54.65 5.375 55.5 C-1.91298648 63.17156471 -11.96166576 67.05637443 -22.375 67.4375 C-33.52744375 67.11292364 -42.19089554 62.9461063 -50 55 C-56.75618632 46.27682272 -60.23880147 36.02877421 -59 25 C-56.87058914 13.48343627 -50.38648482 4.82372745 -41 -2 C-27.26422013 -9.61631384 -13.16270837 -8.19525314 0 0 Z M-44.40625 15.71875 C-48.99310247 22.28424471 -48.71942965 29.2441974 -48 37 C-47.08559267 40.03545525 -45.81551646 42.41541059 -44 45 C-43.4225 45.886875 -42.845 46.77375 -42.25 47.6875 C-36.51755732 53.5791772 -30.48080972 56.1447185 -22.3125 56.3125 C-16.15221927 56.26804437 -12.03351445 55.52346011 -7 52 C-6.113125 51.443125 -5.22625 50.88625 -4.3125 50.3125 C1.30910968 44.69089032 4.13320828 37.74253056 4.375 29.875 C4.2898341 22.21006859 2.30062696 17.60324308 -2.83203125 12 C-8.72457711 6.42125836 -14.28721201 3.94363394 -22.375 3.5 C-32.06930991 3.83521127 -38.26396144 8.56952889 -44.40625 15.71875 Z " fill="#1571FF" transform="translate(278,96)"/>
<path d="M0 0 C13.86 0 27.72 0 42 0 C46.70351759 10.58291457 46.70351759 10.58291457 46 14 C44.42308058 16.01859932 43.53464719 16.89871918 40.98901367 17.38095093 C40.22306885 17.38333771 39.45712402 17.38572449 38.66796875 17.38818359 C37.79696533 17.39764008 36.92596191 17.40709656 36.02856445 17.4168396 C35.09101318 17.41076691 34.15346191 17.40469421 33.1875 17.3984375 C31.73960083 17.40274277 31.73960083 17.40274277 30.26245117 17.40713501 C28.22151096 17.40917661 26.18055123 17.40364007 24.13964844 17.39111328 C21.0119256 17.3750612 17.88549504 17.39095895 14.7578125 17.41015625 C12.77603881 17.40817384 10.79426592 17.4043302 8.8125 17.3984375 C7.87494873 17.40451019 6.93739746 17.41058289 5.97143555 17.4168396 C5.10043213 17.40738312 4.22942871 17.39792664 3.33203125 17.38818359 C2.56608643 17.38579681 1.8001416 17.38341003 1.01098633 17.38095093 C-1.5603739 16.89384565 -2.47118503 16.10135664 -4 14 C-3.78811429 8.49097149 -2.25572445 5.26335705 0 0 Z " fill="#D1E5FF" transform="translate(235,324)"/>
<path d="M0 0 C4.47221888 3.25359839 6.7942635 8.7597908 9 13.6875 C9 14.3475 9 15.0075 9 15.6875 C-0.9 15.6875 -10.8 15.6875 -21 15.6875 C-19.53265311 11.28545934 -18.57109379 8.61297771 -16.125 4.9375 C-15.63257813 4.17953125 -15.14015625 3.4215625 -14.6328125 2.640625 C-10.60936953 -2.17210582 -5.57329962 -2.43831858 0 0 Z " fill="#F9FBFF" transform="translate(262,13.3125)"/>
</svg>
