<svg version="1.1" id="Layer_1" xmlns="http://www.w3.org/2000/svg" xmlns:xlink="http://www.w3.org/1999/xlink" x="0px" y="0px"
	 width="100%" viewBox="0 0 1200 400" enable-background="new 0 0 1200 400" xml:space="preserve">
<path fill="#000000" opacity="1.000000" stroke="none" 
	d="
M1127.000000,401.000000 
	C751.333313,401.000000 376.166656,401.000000 1.000000,401.000000 
	C1.000000,267.666656 1.000000,134.333328 1.000000,1.000000 
	C401.000000,1.000000 801.000000,1.000000 1201.000000,1.000000 
	C1201.000000,134.333328 1201.000000,267.666656 1201.000000,401.000000 
	C1176.500000,401.000000 1152.000000,401.000000 1127.000000,401.000000 
M176.057159,205.060532 
	C176.337967,205.043488 176.618759,205.026459 177.438858,205.672089 
	C179.708557,205.783279 181.977203,205.950363 184.248199,205.993973 
	C188.899979,206.083298 191.278137,208.900467 190.396637,213.959930 
	C189.258179,212.101608 188.119736,210.243286 186.624298,207.802231 
	C184.237213,220.739273 187.043777,231.215149 196.117905,239.855637 
	C198.137268,241.778503 199.864334,242.468216 202.044464,240.283554 
	C210.157013,232.154205 214.355927,222.625961 212.322968,210.987457 
	C212.132278,209.895691 210.754135,209.011337 209.801346,207.166885 
	C213.571091,206.575363 217.340836,205.983856 221.637070,205.309723 
	C221.637070,203.611267 221.636978,201.815125 221.637100,200.018967 
	C221.637894,188.211273 221.655136,176.403564 221.635559,164.595901 
	C221.608353,148.191589 214.952957,134.768402 203.292908,123.522217 
	C200.414139,120.745605 198.029877,120.788887 195.181992,123.493645 
	C185.740692,132.460403 179.261063,143.122742 177.365524,156.065781 
	C176.505203,161.940277 176.961609,168.007614 176.083145,174.015076 
	C175.593750,174.063339 175.104370,174.111618 174.211929,174.627945 
	C172.170166,176.321274 169.783707,177.740814 168.169067,179.773438 
	C165.862885,182.676651 162.759476,185.885254 162.408524,189.217468 
	C161.542618,197.439224 161.933243,205.807526 162.068222,214.112854 
	C162.116348,217.074356 163.842545,217.965439 166.336426,215.981125 
	C169.063187,213.811508 171.859146,211.684219 174.285400,209.206055 
	C175.120590,208.352966 174.934067,206.499573 176.057159,205.060532 
M326.820190,252.006958 
	C330.112610,252.006958 333.404999,252.006958 336.608917,252.006958 
	C348.962219,218.868881 361.157410,186.154877 373.422821,153.252548 
	C367.099792,153.252548 361.500854,153.252548 355.570923,153.252548 
	C347.061249,177.831314 338.594788,202.285263 329.939240,227.285416 
	C321.380280,202.047211 313.051086,177.486450 304.783081,153.106201 
	C298.275330,153.106201 292.461121,153.106201 286.651123,153.106201 
	C286.606293,153.529480 286.459015,153.882950 286.556610,154.145432 
	C298.407745,186.033478 310.252014,217.924225 322.254272,249.755371 
	C322.654205,250.816040 324.662933,251.270096 326.820190,252.006958 
M794.195007,172.157532 
	C791.997803,165.778305 789.800659,159.399094 787.694092,153.282959 
	C781.294495,153.282959 775.414734,153.282959 769.172546,153.282959 
	C781.545593,186.436188 793.778076,219.212738 805.974060,251.891571 
	C810.693481,251.891571 815.009888,251.891571 819.645752,251.891571 
	C831.880310,219.078568 844.115723,186.263306 856.520752,152.993042 
	C851.312134,152.993042 846.972656,153.221512 842.670898,152.916473 
	C839.562134,152.696030 838.394287,153.919174 837.445862,156.732697 
	C829.969910,178.910797 822.323914,201.031647 814.711243,223.163544 
	C814.280212,224.416656 813.681458,225.612137 812.927124,227.383011 
	C806.609436,208.686996 800.559814,190.784286 794.195007,172.157532 
M910.879028,239.667343 
	C912.799500,244.283432 914.720032,248.899521 916.718018,253.701874 
	C922.042725,251.524918 926.118591,249.858536 930.245728,248.171204 
	C919.641602,226.796616 925.555664,204.230621 923.302673,181.579620 
	C914.687500,180.414841 905.869141,178.561172 896.985596,178.163773 
	C880.194641,177.412598 867.560547,186.775223 862.710205,202.926392 
	C859.201843,214.609100 859.963013,226.321976 864.306702,237.622177 
	C867.114197,244.926025 872.296936,250.131454 880.256470,252.098877 
	C893.215759,255.302170 902.620056,251.164886 908.904114,239.450989 
	C909.122681,239.043472 910.107849,239.047150 910.879028,239.667343 
M241.428574,280.845856 
	C243.593658,280.845764 245.760468,280.901459 247.923523,280.834930 
	C253.963043,280.649200 258.606262,276.259460 258.767578,270.641876 
	C258.926605,265.105347 254.923691,260.649261 249.270889,259.627350 
	C247.507935,259.308655 245.557907,258.485229 244.283539,257.272736 
	C239.082016,252.323715 231.386536,258.897583 226.302170,253.218887 
	C225.718933,252.567444 223.426102,253.216522 222.021088,253.605896 
	C220.951675,253.902252 220.071960,254.824768 219.035873,255.317337 
	C218.118149,255.753647 217.122009,256.144714 216.124298,256.271881 
	C212.370956,256.750366 208.602814,257.112793 204.145630,257.593628 
	C198.680817,250.654999 193.823532,249.917221 186.192627,255.745514 
	C180.813736,250.486649 175.838394,248.553329 171.794647,251.823532 
	C167.663818,255.164154 163.427338,257.740326 158.447906,259.234039 
	C156.930252,259.689301 155.189789,260.270660 153.743011,259.944397 
	C147.144379,258.456360 141.099091,261.901917 140.010635,268.059540 
	C138.734741,275.277435 143.671768,280.826996 151.514511,280.834320 
	C181.159256,280.862030 210.804047,280.845703 241.428574,280.845856 
M627.055237,242.375534 
	C627.980713,241.101028 628.906250,239.826523 629.787537,238.612885 
	C631.780518,242.848602 633.509155,246.888260 635.604675,250.727661 
	C636.152588,251.731567 638.104370,252.920273 638.961121,252.641312 
	C642.819153,251.385071 646.515259,249.631439 650.072815,248.139709 
	C639.390015,225.626785 645.627747,202.037964 643.216064,179.192230 
	C637.878784,179.192230 632.625977,179.192230 626.966980,179.192230 
	C626.966980,180.507751 626.968750,181.626953 626.966675,182.746140 
	C626.946106,193.898407 627.165588,205.057999 626.826843,216.200607 
	C626.560669,224.955933 624.038574,233.028351 616.319702,238.287567 
	C608.182007,243.832169 600.455505,240.028656 599.922363,230.209824 
	C599.588867,224.067581 599.750610,217.897018 599.738281,211.739059 
	C599.716797,200.964203 599.732361,190.189285 599.732361,179.316849 
	C593.879272,179.316849 588.508606,179.316849 583.086731,179.316849 
	C583.086731,196.775024 582.774963,213.914307 583.179016,231.036697 
	C583.545044,246.550980 592.771912,254.485916 607.687073,252.854752 
	C615.232056,252.029602 621.750366,249.025696 627.055237,242.375534 
M986.338684,215.361740 
	C986.127930,223.059586 984.344360,230.219833 978.765686,235.891357 
	C975.076782,239.641693 970.690552,241.968689 965.297241,240.042267 
	C959.933289,238.126404 959.351501,233.249832 959.177979,228.544998 
	C958.938721,222.058258 959.091553,215.556824 959.087830,209.061691 
	C959.082214,199.133591 959.086365,189.205490 959.086365,179.265076 
	C953.312134,179.265076 948.078430,179.265076 942.974609,179.265076 
	C942.974609,197.825058 942.487366,216.130341 943.149292,234.393982 
	C943.577026,246.195816 951.371643,252.753036 963.133545,252.944473 
	C974.701233,253.132751 983.686523,248.433472 989.223389,238.380051 
	C991.201660,242.595062 993.008118,246.802612 995.179504,250.812561 
	C995.707703,251.787933 997.694763,252.892715 998.568359,252.602997 
	C1002.421570,251.325104 1006.113037,249.559296 1009.538940,248.107544 
	C998.894165,225.566696 1004.895508,201.984024 1002.651672,179.256378 
	C997.271973,179.256378 992.031799,179.256378 986.394958,179.256378 
	C986.394958,191.142319 986.394958,202.769379 986.338684,215.361740 
M468.778656,218.557022 
	C468.855988,216.226074 468.829498,213.886230 469.028809,211.565750 
	C469.844696,202.065216 475.454773,194.025620 482.718048,191.825943 
	C489.139771,189.881134 493.590851,192.245636 495.179321,198.718445 
	C495.766022,201.109146 495.945374,203.649338 495.958099,206.123154 
	C496.029236,219.952728 495.985535,233.782867 496.003113,247.612778 
	C496.004944,249.039246 496.152710,250.465515 496.229065,251.825775 
	C501.782166,251.825775 506.905029,251.825775 511.896606,251.825775 
	C511.896606,233.024963 512.385803,214.386780 511.693115,195.792633 
	C511.339264,186.294189 505.357361,180.609787 496.839050,178.641907 
	C484.631989,175.821808 473.768890,180.934982 465.594299,193.126022 
	C463.751404,189.306427 461.956299,185.237518 459.798645,181.370956 
	C459.290131,180.459656 457.333923,179.521896 456.430878,179.809982 
	C452.588135,181.035858 448.890839,182.717621 445.385040,184.134109 
	C456.365204,206.171906 450.071625,229.483841 452.445007,251.718018 
	C457.925262,251.718018 463.181183,251.718018 468.778625,251.718018 
	C468.778625,240.803055 468.778625,230.171967 468.778656,218.557022 
M398.827667,235.523499 
	C397.432892,232.126266 396.038116,228.729050 394.370270,224.666672 
	C398.026611,224.388794 400.498169,224.303055 402.942261,223.997635 
	C413.885162,222.630173 424.270386,219.747803 431.867706,211.099594 
	C441.076385,200.617142 437.462799,185.191040 424.845825,180.093201 
	C408.034607,173.300690 388.006012,181.508377 381.010651,198.207840 
	C376.255890,209.558640 376.334564,221.256012 379.537354,232.933350 
	C382.203491,242.653824 388.464478,249.262772 398.345428,251.712173 
	C411.537537,254.982391 423.937195,251.888824 436.331543,246.337158 
	C434.776825,242.702026 433.370728,239.414383 432.062286,236.355057 
	C426.361084,237.862549 421.149475,239.561447 415.807434,240.568298 
	C409.728088,241.714127 403.816132,241.196243 398.827667,235.523499 
M762.542603,216.070007 
	C765.008545,213.631653 767.938965,211.510239 769.857361,208.698349 
	C776.989380,198.245132 772.435852,184.434006 760.645569,179.947311 
	C743.384338,173.378662 723.702209,181.932404 716.917603,199.082367 
	C712.601318,209.992874 712.743958,221.212982 715.629272,232.377838 
	C718.247192,242.507935 724.656860,249.376572 734.986328,251.814484 
	C748.012268,254.888840 760.256775,251.854828 772.541321,246.346786 
	C771.031006,242.746094 769.652954,239.460800 768.599609,236.949539 
	C760.702576,238.354065 753.447388,240.447891 746.119995,240.742447 
	C737.145203,241.103226 731.464661,233.954926 732.112610,224.538757 
	C742.612732,224.068207 752.868164,222.368958 762.542603,216.070007 
M1085.722778,178.986740 
	C1085.150146,177.720947 1084.128662,176.471024 1084.083252,175.186615 
	C1083.896118,169.885437 1084.004883,164.573792 1084.004883,158.906372 
	C1080.572144,159.651352 1077.554077,160.472168 1074.481812,160.925507 
	C1071.527222,161.361481 1069.846558,162.390579 1069.544067,165.773697 
	C1069.150879,170.171982 1068.044189,174.506470 1067.195801,179.134369 
	C1062.698486,179.134369 1058.591187,179.134369 1054.456299,179.134369 
	C1054.456299,183.211426 1054.456299,186.922318 1054.456299,191.066635 
	C1058.872070,191.066635 1062.956177,191.066635 1067.250000,191.066635 
	C1067.250000,196.481567 1067.206055,201.457108 1067.258911,206.431595 
	C1067.377197,217.576904 1067.291382,228.732941 1067.786377,239.862457 
	C1068.078369,246.428452 1072.242920,250.466110 1078.522583,252.023468 
	C1087.371094,254.217850 1095.920898,252.676819 1104.673096,249.670334 
	C1103.718872,245.908401 1102.843872,242.458466 1101.981567,239.059174 
	C1098.054932,239.677979 1094.646362,240.470184 1091.201294,240.687653 
	C1087.624268,240.913437 1084.167603,239.886917 1084.117310,235.523575 
	C1083.946899,220.760483 1084.052368,205.994202 1084.052368,190.872940 
	C1089.572510,190.872940 1094.669189,190.872940 1099.835571,190.872940 
	C1100.553589,186.827194 1101.211792,183.118408 1101.944214,178.991165 
	C1096.630127,178.991165 1091.657959,178.991165 1085.722778,178.986740 
M536.042236,203.509216 
	C536.046021,214.502884 535.947021,225.497879 536.087402,236.489807 
	C536.192261,244.697159 539.653748,249.923355 546.397949,251.800186 
	C555.529541,254.341446 564.403931,252.790237 573.390076,249.685455 
	C572.871094,247.509964 572.479248,245.743729 572.023865,243.994049 
	C571.580444,242.290482 571.071899,240.603867 570.630981,239.047546 
	C567.073486,239.643600 563.980774,240.344086 560.849670,240.646973 
	C555.036499,241.209305 552.899719,239.226517 552.846619,233.391235 
	C552.786011,226.728943 552.831543,220.065674 552.831360,213.402832 
	C552.831116,205.979767 552.831360,198.556702 552.831360,190.695129 
	C558.530457,190.695129 563.615967,190.695129 568.724976,190.695129 
	C569.371521,186.598434 569.948730,182.941528 570.589539,178.881256 
	C564.413208,178.881256 558.800049,178.881256 552.823486,178.881256 
	C552.823486,172.127182 552.823486,165.697159 552.823486,158.901215 
	C549.323303,159.658432 546.286621,160.621338 543.187866,160.905258 
	C539.627380,161.231476 538.547119,163.201416 538.134399,166.333069 
	C537.579163,170.546158 536.739441,174.721786 535.977417,179.172821 
	C531.381531,179.172821 527.284241,179.172821 523.317627,179.172821 
	C523.317627,183.277710 523.317627,187.000412 523.317627,191.139313 
	C527.734680,191.139313 531.809631,191.139313 536.042236,191.139313 
	C536.042236,195.216141 536.042236,198.865295 536.042236,203.509216 
M1022.833130,184.499924 
	C1022.849487,202.157257 1022.748230,219.815811 1022.930725,237.471420 
	C1023.024597,246.557358 1028.116089,252.395981 1036.688354,252.751343 
	C1042.371216,252.986923 1048.108643,251.907669 1054.384888,251.368637 
	C1053.535278,246.895630 1052.902710,243.565598 1052.275513,240.263733 
	C1039.636475,241.816772 1039.320190,241.529510 1039.320068,228.951859 
	C1039.319946,203.464905 1039.320068,177.977951 1039.320068,152.490997 
	C1039.320068,150.701294 1039.319946,148.911606 1039.319946,146.552048 
	C1033.617676,147.557709 1028.467163,148.466049 1022.833130,149.459671 
	C1022.833130,160.930939 1022.833130,172.215424 1022.833130,184.499924 
M662.734192,194.076370 
	C663.939819,213.236206 665.145508,232.396057 666.358643,251.675690 
	C671.070557,251.675690 676.442810,251.675690 681.976746,251.675690 
	C681.976746,238.877411 682.167847,226.407806 681.922791,213.946793 
	C681.680054,201.599854 689.377625,191.287720 703.862610,195.203674 
	C705.328125,190.046646 706.793518,184.890015 708.256287,179.742691 
	C693.871033,175.582901 686.683105,178.811584 678.569397,192.354492 
	C676.427917,188.015259 674.182190,183.464737 671.848633,178.736145 
	C666.900879,180.760315 662.681030,182.486679 658.681519,184.122925 
	C660.051514,187.501770 661.232666,190.414886 662.734192,194.076370 
M234.915070,184.798996 
	C231.364868,181.302841 227.814651,177.806702 224.264450,174.310547 
	C223.793808,174.578064 223.323181,174.845581 222.852554,175.113083 
	C222.852554,185.700836 222.837509,196.288651 222.886810,206.876160 
	C222.890060,207.573944 223.187546,208.493958 223.683151,208.928955 
	C226.550552,211.445816 229.396973,214.029114 232.548950,216.145432 
	C233.228394,216.601624 236.308029,215.211594 236.298431,214.709930 
	C236.112213,204.969101 235.631073,195.233932 234.915070,184.798996 
z"/>
<path fill="#F7F0E3" opacity="1.000000" stroke="none" 
	d="
M326.370972,252.006927 
	C324.662933,251.270096 322.654205,250.816040 322.254272,249.755371 
	C310.252014,217.924225 298.407745,186.033478 286.556610,154.145432 
	C286.459015,153.882950 286.606293,153.529480 286.651123,153.106201 
	C292.461121,153.106201 298.275330,153.106201 304.783081,153.106201 
	C313.051086,177.486450 321.380280,202.047211 329.939240,227.285416 
	C338.594788,202.285263 347.061249,177.831314 355.570923,153.252548 
	C361.500854,153.252548 367.099792,153.252548 373.422821,153.252548 
	C361.157410,186.154877 348.962219,218.868881 336.608917,252.006958 
	C333.404999,252.006958 330.112610,252.006958 326.370972,252.006927 
z"/>
<path fill="#F7F0E3" opacity="1.000000" stroke="none" 
	d="
M794.352600,172.519547 
	C800.559814,190.784286 806.609436,208.686996 812.927124,227.383011 
	C813.681458,225.612137 814.280212,224.416656 814.711243,223.163544 
	C822.323914,201.031647 829.969910,178.910797 837.445862,156.732697 
	C838.394287,153.919174 839.562134,152.696030 842.670898,152.916473 
	C846.972656,153.221512 851.312134,152.993042 856.520752,152.993042 
	C844.115723,186.263306 831.880310,219.078568 819.645752,251.891571 
	C815.009888,251.891571 810.693481,251.891571 805.974060,251.891571 
	C793.778076,219.212738 781.545593,186.436188 769.172546,153.282959 
	C775.414734,153.282959 781.294495,153.282959 787.694092,153.282959 
	C789.800659,159.399094 791.997803,165.778305 794.352600,172.519547 
z"/>
<path fill="#F8F1E3" opacity="1.000000" stroke="none" 
	d="
M176.820709,173.987473 
	C176.961609,168.007614 176.505203,161.940277 177.365524,156.065781 
	C179.261063,143.122742 185.740692,132.460403 195.181992,123.493645 
	C198.029877,120.788887 200.414139,120.745605 203.292908,123.522217 
	C214.952957,134.768402 221.608353,148.191589 221.635559,164.595901 
	C221.655136,176.403564 221.637894,188.211273 221.637100,200.018967 
	C221.636978,201.815125 221.637070,203.611267 221.637070,205.309723 
	C217.340836,205.983856 213.571091,206.575363 209.896118,207.592346 
	C209.990891,208.017807 210.005737,207.954651 209.646942,207.897736 
	C208.498749,209.564316 207.709335,211.287811 206.952942,212.996582 
	C206.985977,212.981827 207.008072,212.912918 206.612976,213.063568 
	C204.655518,213.478043 203.098679,213.920761 201.529648,213.969315 
	C197.994141,214.078735 194.452576,213.992996 190.956604,214.038055 
	C190.999725,214.089432 191.088852,214.189697 191.088852,214.189697 
	C191.278137,208.900467 188.899979,206.083298 184.248199,205.993973 
	C181.977203,205.950363 179.708557,205.783279 177.216553,204.873596 
	C176.936401,194.045883 176.878555,184.016678 176.820709,173.987473 
M201.657333,147.710938 
	C198.515137,148.613922 194.635056,148.662933 192.389313,150.603394 
	C188.138321,154.276489 189.241440,161.078613 193.797745,164.371628 
	C198.155640,167.521240 204.343918,166.288681 207.186569,161.704865 
	C210.378525,156.557755 208.490860,151.122086 201.657333,147.710938 
z"/>
<path fill="#F6EFE2" opacity="1.000000" stroke="none" 
	d="
M910.807373,239.263260 
	C910.107849,239.047150 909.122681,239.043472 908.904114,239.450989 
	C902.620056,251.164886 893.215759,255.302170 880.256470,252.098877 
	C872.296936,250.131454 867.114197,244.926025 864.306702,237.622177 
	C859.963013,226.321976 859.201843,214.609100 862.710205,202.926392 
	C867.560547,186.775223 880.194641,177.412598 896.985596,178.163773 
	C905.869141,178.561172 914.687500,180.414841 923.302673,181.579620 
	C925.555664,204.230621 919.641602,226.796616 930.245728,248.171204 
	C926.118591,249.858536 922.042725,251.524918 916.718018,253.701874 
	C914.720032,248.899521 912.799500,244.283432 910.807373,239.263260 
M892.065308,241.056610 
	C899.740479,238.803085 903.533569,232.572418 904.689148,225.713455 
	C906.576050,214.514297 906.921875,203.055511 907.953369,191.301804 
	C904.079285,190.703995 901.359802,190.032272 898.615295,189.906372 
	C888.966248,189.463745 882.630920,193.384735 880.348877,201.899170 
	C877.591309,212.187775 877.898865,222.689072 880.370117,232.998169 
	C881.777893,238.870605 885.037537,240.928162 892.065308,241.056610 
z"/>
<path fill="#F7F0E2" opacity="1.000000" stroke="none" 
	d="
M240.938690,280.845856 
	C210.804047,280.845703 181.159256,280.862030 151.514511,280.834320 
	C143.671768,280.826996 138.734741,275.277435 140.010635,268.059540 
	C141.099091,261.901917 147.144379,258.456360 153.743011,259.944397 
	C155.189789,260.270660 156.930252,259.689301 158.447906,259.234039 
	C163.427338,257.740326 167.663818,255.164154 171.794647,251.823532 
	C175.838394,248.553329 180.813736,250.486649 186.192627,255.745514 
	C193.823532,249.917221 198.680817,250.654999 204.145630,257.593628 
	C208.602814,257.112793 212.370956,256.750366 216.124298,256.271881 
	C217.122009,256.144714 218.118149,255.753647 219.035873,255.317337 
	C220.071960,254.824768 220.951675,253.902252 222.021088,253.605896 
	C223.426102,253.216522 225.718933,252.567444 226.302170,253.218887 
	C231.386536,258.897583 239.082016,252.323715 244.283539,257.272736 
	C245.557907,258.485229 247.507935,259.308655 249.270889,259.627350 
	C254.923691,260.649261 258.926605,265.105347 258.767578,270.641876 
	C258.606262,276.259460 253.963043,280.649200 247.923523,280.834930 
	C245.760468,280.901459 243.593658,280.845764 240.938690,280.845856 
z"/>
<path fill="#F6EFE1" opacity="1.000000" stroke="none" 
	d="
M626.836426,242.671783 
	C621.750366,249.025696 615.232056,252.029602 607.687073,252.854752 
	C592.771912,254.485916 583.545044,246.550980 583.179016,231.036697 
	C582.774963,213.914307 583.086731,196.775024 583.086731,179.316849 
	C588.508606,179.316849 593.879272,179.316849 599.732361,179.316849 
	C599.732361,190.189285 599.716797,200.964203 599.738281,211.739059 
	C599.750610,217.897018 599.588867,224.067581 599.922363,230.209824 
	C600.455505,240.028656 608.182007,243.832169 616.319702,238.287567 
	C624.038574,233.028351 626.560669,224.955933 626.826843,216.200607 
	C627.165588,205.057999 626.946106,193.898407 626.966675,182.746140 
	C626.968750,181.626953 626.966980,180.507751 626.966980,179.192230 
	C632.625977,179.192230 637.878784,179.192230 643.216064,179.192230 
	C645.627747,202.037964 639.390015,225.626785 650.072815,248.139709 
	C646.515259,249.631439 642.819153,251.385071 638.961121,252.641312 
	C638.104370,252.920273 636.152588,251.731567 635.604675,250.727661 
	C633.509155,246.888260 631.780518,242.848602 629.787537,238.612885 
	C628.906250,239.826523 627.980713,241.101028 626.836426,242.671783 
z"/>
<path fill="#F7F1E3" opacity="1.000000" stroke="none" 
	d="
M986.366821,214.879089 
	C986.394958,202.769379 986.394958,191.142319 986.394958,179.256378 
	C992.031799,179.256378 997.271973,179.256378 1002.651672,179.256378 
	C1004.895508,201.984024 998.894165,225.566696 1009.538940,248.107544 
	C1006.113037,249.559296 1002.421570,251.325104 998.568359,252.602997 
	C997.694763,252.892715 995.707703,251.787933 995.179504,250.812561 
	C993.008118,246.802612 991.201660,242.595062 989.223389,238.380051 
	C983.686523,248.433472 974.701233,253.132751 963.133545,252.944473 
	C951.371643,252.753036 943.577026,246.195816 943.149292,234.393982 
	C942.487366,216.130341 942.974609,197.825058 942.974609,179.265076 
	C948.078430,179.265076 953.312134,179.265076 959.086365,179.265076 
	C959.086365,189.205490 959.082214,199.133591 959.087830,209.061691 
	C959.091553,215.556824 958.938721,222.058258 959.177979,228.544998 
	C959.351501,233.249832 959.933289,238.126404 965.297241,240.042267 
	C970.690552,241.968689 975.076782,239.641693 978.765686,235.891357 
	C984.344360,230.219833 986.127930,223.059586 986.366821,214.879089 
z"/>
<path fill="#F8F1E3" opacity="1.000000" stroke="none" 
	d="
M468.778625,219.048950 
	C468.778625,230.171967 468.778625,240.803055 468.778625,251.718018 
	C463.181183,251.718018 457.925262,251.718018 452.445007,251.718018 
	C450.071625,229.483841 456.365204,206.171906 445.385040,184.134109 
	C448.890839,182.717621 452.588135,181.035858 456.430878,179.809982 
	C457.333923,179.521896 459.290131,180.459656 459.798645,181.370956 
	C461.956299,185.237518 463.751404,189.306427 465.594299,193.126022 
	C473.768890,180.934982 484.631989,175.821808 496.839050,178.641907 
	C505.357361,180.609787 511.339264,186.294189 511.693115,195.792633 
	C512.385803,214.386780 511.896606,233.024963 511.896606,251.825775 
	C506.905029,251.825775 501.782166,251.825775 496.229065,251.825775 
	C496.152710,250.465515 496.004944,249.039246 496.003113,247.612778 
	C495.985535,233.782867 496.029236,219.952728 495.958099,206.123154 
	C495.945374,203.649338 495.766022,201.109146 495.179321,198.718445 
	C493.590851,192.245636 489.139771,189.881134 482.718048,191.825943 
	C475.454773,194.025620 469.844696,202.065216 469.028809,211.565750 
	C468.829498,213.886230 468.855988,216.226074 468.778625,219.048950 
z"/>
<path fill="#F6EFE2" opacity="1.000000" stroke="none" 
	d="
M399.041962,235.837891 
	C403.816132,241.196243 409.728088,241.714127 415.807434,240.568298 
	C421.149475,239.561447 426.361084,237.862549 432.062286,236.355057 
	C433.370728,239.414383 434.776825,242.702026 436.331543,246.337158 
	C423.937195,251.888824 411.537537,254.982391 398.345428,251.712173 
	C388.464478,249.262772 382.203491,242.653824 379.537354,232.933350 
	C376.334564,221.256012 376.255890,209.558640 381.010651,198.207840 
	C388.006012,181.508377 408.034607,173.300690 424.845825,180.093201 
	C437.462799,185.191040 441.076385,200.617142 431.867706,211.099594 
	C424.270386,219.747803 413.885162,222.630173 402.942261,223.997635 
	C400.498169,224.303055 398.026611,224.388794 394.370270,224.666672 
	C396.038116,228.729050 397.432892,232.126266 399.041962,235.837891 
M412.161469,209.859940 
	C412.994781,209.320770 413.871826,208.838181 414.654388,208.233368 
	C420.322784,203.852570 421.904175,197.150635 418.355225,192.665848 
	C414.864838,188.255157 406.967194,188.296982 401.818756,192.865143 
	C400.602631,193.944199 399.501740,195.266968 398.698700,196.677399 
	C395.696960,201.949463 394.524261,207.641113 395.036652,214.895981 
	C400.853271,213.220993 406.162659,211.692078 412.161469,209.859940 
z"/>
<path fill="#F7F0E2" opacity="1.000000" stroke="none" 
	d="
M762.251831,216.283661 
	C752.868164,222.368958 742.612732,224.068207 732.112610,224.538757 
	C731.464661,233.954926 737.145203,241.103226 746.119995,240.742447 
	C753.447388,240.447891 760.702576,238.354065 768.599609,236.949539 
	C769.652954,239.460800 771.031006,242.746094 772.541321,246.346786 
	C760.256775,251.854828 748.012268,254.888840 734.986328,251.814484 
	C724.656860,249.376572 718.247192,242.507935 715.629272,232.377838 
	C712.743958,221.212982 712.601318,209.992874 716.917603,199.082367 
	C723.702209,181.932404 743.384338,173.378662 760.645569,179.947311 
	C772.435852,184.434006 776.989380,198.245132 769.857361,208.698349 
	C767.938965,211.510239 765.008545,213.631653 762.251831,216.283661 
M748.915161,209.559723 
	C749.863098,208.896332 750.875732,208.308151 751.748169,207.557083 
	C756.564331,203.410858 757.869263,197.170013 754.850647,192.947266 
	C751.871277,188.779556 744.835205,188.169785 739.523438,191.717041 
	C738.298035,192.535324 737.070862,193.527649 736.228577,194.712814 
	C732.158386,200.439957 730.841492,206.899048 731.091736,215.003891 
	C737.292053,213.174438 742.778076,211.555756 748.915161,209.559723 
z"/>
<path fill="#F6F0E2" opacity="1.000000" stroke="none" 
	d="
M1086.204346,178.988953 
	C1091.657959,178.991165 1096.630127,178.991165 1101.944214,178.991165 
	C1101.211792,183.118408 1100.553589,186.827194 1099.835571,190.872940 
	C1094.669189,190.872940 1089.572510,190.872940 1084.052368,190.872940 
	C1084.052368,205.994202 1083.946899,220.760483 1084.117310,235.523575 
	C1084.167603,239.886917 1087.624268,240.913437 1091.201294,240.687653 
	C1094.646362,240.470184 1098.054932,239.677979 1101.981567,239.059174 
	C1102.843872,242.458466 1103.718872,245.908401 1104.673096,249.670334 
	C1095.920898,252.676819 1087.371094,254.217850 1078.522583,252.023468 
	C1072.242920,250.466110 1068.078369,246.428452 1067.786377,239.862457 
	C1067.291382,228.732941 1067.377197,217.576904 1067.258911,206.431595 
	C1067.206055,201.457108 1067.250000,196.481567 1067.250000,191.066635 
	C1062.956177,191.066635 1058.872070,191.066635 1054.456299,191.066635 
	C1054.456299,186.922318 1054.456299,183.211426 1054.456299,179.134369 
	C1058.591187,179.134369 1062.698486,179.134369 1067.195801,179.134369 
	C1068.044189,174.506470 1069.150879,170.171982 1069.544067,165.773697 
	C1069.846558,162.390579 1071.527222,161.361481 1074.481812,160.925507 
	C1077.554077,160.472168 1080.572144,159.651352 1084.004883,158.906372 
	C1084.004883,164.573792 1083.896118,169.885437 1084.083252,175.186615 
	C1084.128662,176.471024 1085.150146,177.720947 1086.204346,178.988953 
z"/>
<path fill="#F6EFE1" opacity="1.000000" stroke="none" 
	d="
M536.042236,203.011841 
	C536.042236,198.865295 536.042236,195.216141 536.042236,191.139313 
	C531.809631,191.139313 527.734680,191.139313 523.317627,191.139313 
	C523.317627,187.000412 523.317627,183.277710 523.317627,179.172821 
	C527.284241,179.172821 531.381531,179.172821 535.977417,179.172821 
	C536.739441,174.721786 537.579163,170.546158 538.134399,166.333069 
	C538.547119,163.201416 539.627380,161.231476 543.187866,160.905258 
	C546.286621,160.621338 549.323303,159.658432 552.823486,158.901215 
	C552.823486,165.697159 552.823486,172.127182 552.823486,178.881256 
	C558.800049,178.881256 564.413208,178.881256 570.589539,178.881256 
	C569.948730,182.941528 569.371521,186.598434 568.724976,190.695129 
	C563.615967,190.695129 558.530457,190.695129 552.831360,190.695129 
	C552.831360,198.556702 552.831116,205.979767 552.831360,213.402832 
	C552.831543,220.065674 552.786011,226.728943 552.846619,233.391235 
	C552.899719,239.226517 555.036499,241.209305 560.849670,240.646973 
	C563.980774,240.344086 567.073486,239.643600 570.630981,239.047546 
	C571.071899,240.603867 571.580444,242.290482 572.023865,243.994049 
	C572.479248,245.743729 572.871094,247.509964 573.390076,249.685455 
	C564.403931,252.790237 555.529541,254.341446 546.397949,251.800186 
	C539.653748,249.923355 536.192261,244.697159 536.087402,236.489807 
	C535.947021,225.497879 536.046021,214.502884 536.042236,203.011841 
z"/>
<path fill="#FAF3E5" opacity="1.000000" stroke="none" 
	d="
M1022.833130,183.999908 
	C1022.833130,172.215424 1022.833130,160.930939 1022.833130,149.459671 
	C1028.467163,148.466049 1033.617676,147.557709 1039.319946,146.552048 
	C1039.319946,148.911606 1039.320068,150.701294 1039.320068,152.490997 
	C1039.320068,177.977951 1039.319946,203.464905 1039.320068,228.951859 
	C1039.320190,241.529510 1039.636475,241.816772 1052.275513,240.263733 
	C1052.902710,243.565598 1053.535278,246.895630 1054.384888,251.368637 
	C1048.108643,251.907669 1042.371216,252.986923 1036.688354,252.751343 
	C1028.116089,252.395981 1023.024597,246.557358 1022.930725,237.471420 
	C1022.748230,219.815811 1022.849487,202.157257 1022.833130,183.999908 
z"/>
<path fill="#F6EFE2" opacity="1.000000" stroke="none" 
	d="
M662.573975,193.702179 
	C661.232666,190.414886 660.051514,187.501770 658.681519,184.122925 
	C662.681030,182.486679 666.900879,180.760315 671.848633,178.736145 
	C674.182190,183.464737 676.427917,188.015259 678.569397,192.354492 
	C686.683105,178.811584 693.871033,175.582901 708.256287,179.742691 
	C706.793518,184.890015 705.328125,190.046646 703.862610,195.203674 
	C689.377625,191.287720 681.680054,201.599854 681.922791,213.946793 
	C682.167847,226.407806 681.976746,238.877411 681.976746,251.675690 
	C676.442810,251.675690 671.070557,251.675690 666.358643,251.675690 
	C665.145508,232.396057 663.939819,213.236206 662.573975,193.702179 
z"/>
<path fill="#F6EFE2" opacity="1.000000" stroke="none" 
	d="
M209.959091,208.024246 
	C210.754135,209.011337 212.132278,209.895691 212.322968,210.987457 
	C214.355927,222.625961 210.157013,232.154205 202.044464,240.283554 
	C199.864334,242.468216 198.137268,241.778503 196.117905,239.855637 
	C187.043777,231.215149 184.237213,220.739273 186.624298,207.802231 
	C188.119736,210.243286 189.258179,212.101608 190.742737,214.074814 
	C191.088852,214.189697 190.999725,214.089432 191.116821,214.406113 
	C195.957718,215.035263 200.679657,215.434998 205.407944,215.535187 
	C205.922562,215.546097 206.473816,213.828674 207.008072,212.912918 
	C207.008072,212.912918 206.985977,212.981827 207.226440,213.403793 
	C208.313171,211.868729 209.159454,209.911682 210.005737,207.954651 
	C210.005737,207.954651 209.990891,208.017807 209.959091,208.024246 
z"/>
<path fill="#EBE5D8" opacity="1.000000" stroke="none" 
	d="
M235.062759,185.148285 
	C235.631073,195.233932 236.112213,204.969101 236.298431,214.709930 
	C236.308029,215.211594 233.228394,216.601624 232.548950,216.145432 
	C229.396973,214.029114 226.550552,211.445816 223.683151,208.928955 
	C223.187546,208.493958 222.890060,207.573944 222.886810,206.876160 
	C222.837509,196.288651 222.852554,185.700836 222.852554,175.113083 
	C223.323181,174.845581 223.793808,174.578064 224.264450,174.310547 
	C227.814651,177.806702 231.364868,181.302841 235.062759,185.148285 
z"/>
<path fill="#F8F1E3" opacity="1.000000" stroke="none" 
	d="
M175.214279,205.103149 
	C174.934067,206.499573 175.120590,208.352966 174.285400,209.206055 
	C171.859146,211.684219 169.063187,213.811508 166.336426,215.981125 
	C163.842545,217.965439 162.116348,217.074356 162.068222,214.112854 
	C161.933243,205.807526 161.542618,197.439224 162.408524,189.217468 
	C162.759476,185.885254 165.862885,182.676651 168.169067,179.773438 
	C169.783707,177.740814 172.170166,176.321274 174.541977,174.836975 
	C174.986115,185.065048 175.100189,195.084106 175.214279,205.103149 
z"/>
<path fill="#0E0E0D" opacity="1.000000" stroke="none" 
	d="
M175.635712,205.081848 
	C175.100189,195.084106 174.986115,185.065048 174.743500,174.602936 
	C175.104370,174.111618 175.593750,174.063339 176.451935,174.001282 
	C176.878555,184.016678 176.936401,194.045883 176.946899,204.542252 
	C176.618759,205.026459 176.337967,205.043488 175.635712,205.081848 
z"/>
<path fill="#060606" opacity="1.000000" stroke="none" 
	d="
M202.026428,147.809814 
	C208.490860,151.122086 210.378525,156.557755 207.186569,161.704865 
	C204.343918,166.288681 198.155640,167.521240 193.797745,164.371628 
	C189.241440,161.078613 188.138321,154.276489 192.389313,150.603394 
	C194.635056,148.662933 198.515137,148.613922 202.026428,147.809814 
z"/>
<path fill="#000000" opacity="1.000000" stroke="none" 
	d="
M206.612976,213.063568 
	C206.473816,213.828674 205.922562,215.546097 205.407944,215.535187 
	C200.679657,215.434998 195.957718,215.035263 191.073700,214.354736 
	C194.452576,213.992996 197.994141,214.078735 201.529648,213.969315 
	C203.098679,213.920761 204.655518,213.478043 206.612976,213.063568 
z"/>
<path fill="#000000" opacity="1.000000" stroke="none" 
	d="
M209.646942,207.897736 
	C209.159454,209.911682 208.313171,211.868729 207.193405,213.418549 
	C207.709335,211.287811 208.498749,209.564316 209.646942,207.897736 
z"/>
<path fill="#020202" opacity="1.000000" stroke="none" 
	d="
M891.654724,241.099487 
	C885.037537,240.928162 881.777893,238.870605 880.370117,232.998169 
	C877.898865,222.689072 877.591309,212.187775 880.348877,201.899170 
	C882.630920,193.384735 888.966248,189.463745 898.615295,189.906372 
	C901.359802,190.032272 904.079285,190.703995 907.953369,191.301804 
	C906.921875,203.055511 906.576050,214.514297 904.689148,225.713455 
	C903.533569,232.572418 899.740479,238.803085 891.654724,241.099487 
z"/>
<path fill="#050505" opacity="1.000000" stroke="none" 
	d="
M411.816772,210.011536 
	C406.162659,211.692078 400.853271,213.220993 395.036652,214.895981 
	C394.524261,207.641113 395.696960,201.949463 398.698700,196.677399 
	C399.501740,195.266968 400.602631,193.944199 401.818756,192.865143 
	C406.967194,188.296982 414.864838,188.255157 418.355225,192.665848 
	C421.904175,197.150635 420.322784,203.852570 414.654388,208.233368 
	C413.871826,208.838181 412.994781,209.320770 411.816772,210.011536 
z"/>
<path fill="#070706" opacity="1.000000" stroke="none" 
	d="
M748.589600,209.748398 
	C742.778076,211.555756 737.292053,213.174438 731.091736,215.003891 
	C730.841492,206.899048 732.158386,200.439957 736.228577,194.712814 
	C737.070862,193.527649 738.298035,192.535324 739.523438,191.717041 
	C744.835205,188.169785 751.871277,188.779556 754.850647,192.947266 
	C757.869263,197.170013 756.564331,203.410858 751.748169,207.557083 
	C750.875732,208.308151 749.863098,208.896332 748.589600,209.748398 
z"/>
</svg>