<svg version="1.1" id="Layer_1" xmlns="http://www.w3.org/2000/svg" xmlns:xlink="http://www.w3.org/1999/xlink" x="0px" y="0px"
	 width="100%" viewBox="0 0 512 512" enable-background="new 0 0 512 512" xml:space="preserve">
	<rect width="100%" height="100%" fill="none"/>
	<path fill="#000000" opacity="1.000000" stroke="none" 
	d="
M260.000000,0.999998 
	C344.294037,1.000000 428.588043,1.000000 512.941040,1.000000 
	C512.941040,171.547806 512.941040,342.095642 512.941040,513.000000 
	C456.312408,513.000000 399.624054,513.000000 342.130554,512.675171 
	C341.992584,511.914246 342.620605,511.178711 343.332703,511.085541 
	C362.555847,508.569672 375.833740,498.224731 383.098053,480.399841 
	C389.983124,463.505615 387.742249,447.321075 377.028107,432.811798 
	C372.565216,426.768036 366.290131,422.062500 360.460724,416.379639 
	C362.890106,407.108032 356.836212,391.069580 345.239685,383.669952 
	C330.530884,374.284363 316.750671,376.470947 299.357269,390.858704 
	C293.134369,389.929626 287.741058,389.124420 282.001678,388.267548 
	C282.001678,377.124084 281.940002,365.823792 282.099854,354.526672 
	C282.115326,353.431183 283.265839,351.976379 284.293182,351.337341 
	C288.197815,348.908539 290.989349,345.930328 292.368317,341.300568 
	C294.261475,334.944092 291.864288,329.592194 289.738831,325.293091 
	C293.384247,321.077911 296.380859,317.357025 299.694733,313.944153 
	C300.632355,312.978546 302.855347,312.101929 303.882690,312.555969 
	C319.801544,319.591522 334.144958,328.720734 344.195343,343.488556 
	C349.862946,351.816437 358.494965,354.513275 367.358032,352.354401 
	C375.761078,350.307617 382.726746,341.321350 382.084290,331.712555 
	C381.639130,325.055237 382.132874,318.340637 381.962128,311.657898 
	C381.780701,304.557220 381.959961,297.359253 380.836578,290.388306 
	C378.122162,273.544403 374.484314,256.857147 367.924347,241.008759 
	C358.108765,217.295013 345.068848,195.793015 324.918121,179.219223 
	C323.766510,178.272018 323.173706,176.135284 323.073639,174.505936 
	C322.577026,166.420547 322.761780,158.273682 321.900238,150.234894 
	C320.595886,138.064606 319.448578,125.781387 316.782288,113.871269 
	C308.984955,79.041359 295.352814,46.397514 277.716492,15.425993 
	C274.014313,8.924539 269.278046,3.337574 260.874664,2.836046 
	C260.547760,2.816537 260.290009,1.638307 260.000000,0.999998 
z"/>
<path fill="#000000" opacity="1.000000" stroke="none" 
	d="
M172.000000,513.000000 
	C115.026550,513.000000 58.053097,513.000000 1.039822,513.000000 
	C1.039822,342.439392 1.039822,171.878738 1.039822,1.000000 
	C85.021164,1.000000 169.042740,1.000000 253.870926,1.301330 
	C251.435654,2.922981 247.987503,3.889199 244.992691,5.633702 
	C237.640381,9.916499 234.856354,17.866861 231.189117,24.778252 
	C219.051239,47.653587 208.146317,71.152168 201.983841,96.435822 
	C198.100235,112.369629 194.718414,128.477127 192.218323,144.677521 
	C190.713989,154.425446 191.430038,164.506348 190.912369,174.425278 
	C190.820786,176.180023 190.054520,178.498276 188.773743,179.497208 
	C178.785828,187.287323 171.059113,197.058121 163.971085,207.363464 
	C153.093689,223.178223 144.818832,240.317947 140.083191,258.921936 
	C137.121246,270.557922 135.079010,282.449249 133.101013,294.305573 
	C132.102722,300.289368 131.851959,306.448700 131.823273,312.531281 
	C131.783188,321.030151 131.525787,329.638580 132.733704,338.001892 
	C133.952255,346.438843 140.274750,351.286346 148.409927,352.870697 
	C157.425339,354.626465 164.667145,350.926849 169.759613,343.524475 
	C179.857880,328.845642 194.003967,319.535370 209.990707,312.623474 
	C211.057236,312.162354 213.222839,312.557129 213.990463,313.380524 
	C217.454330,317.096161 220.598648,321.109711 224.247086,325.482056 
	C224.372482,325.129028 224.176956,325.906403 223.833725,326.611847 
	C218.307526,337.970947 220.071594,344.736969 230.355072,351.807495 
	C231.041061,352.279175 231.912689,353.150299 231.918457,353.842102 
	C232.015030,365.448242 231.987427,377.055481 231.987427,388.269531 
	C225.994537,389.154846 220.589752,389.953247 214.519363,390.850006 
	C203.456543,379.160339 189.675583,374.127289 173.276016,381.397461 
	C156.635696,388.774445 152.173828,404.497894 153.185486,418.239441 
	C132.865799,429.432373 123.627640,451.269196 128.194992,472.622192 
	C132.556778,493.014038 148.009338,507.783386 169.561539,511.069702 
	C170.451782,511.205475 171.190628,512.333984 172.000000,513.000000 
z"/>
<path fill="#1370FF" opacity="1.000000" stroke="none" 
	d="
M172.468658,513.000000 
	C171.190628,512.333984 170.451782,511.205475 169.561539,511.069702 
	C148.009338,507.783386 132.556778,493.014038 128.194992,472.622192 
	C123.627640,451.269196 132.865799,429.432373 153.185486,418.239441 
	C152.173828,404.497894 156.635696,388.774445 173.276016,381.397461 
	C189.675583,374.127289 203.456543,379.160339 214.519363,390.850006 
	C220.589752,389.953247 225.994537,389.154846 231.987427,388.269531 
	C231.987427,377.055481 232.015030,365.448242 231.918457,353.842102 
	C231.912689,353.150299 231.041061,352.279175 230.355072,351.807495 
	C220.071594,344.736969 218.307526,337.970947 223.833725,326.611847 
	C224.176956,325.906403 224.372482,325.129028 224.247086,325.482056 
	C220.598648,321.109711 217.454330,317.096161 213.990463,313.380524 
	C213.222839,312.557129 211.057236,312.162354 209.990707,312.623474 
	C194.003967,319.535370 179.857880,328.845642 169.759613,343.524475 
	C164.667145,350.926849 157.425339,354.626465 148.409927,352.870697 
	C140.274750,351.286346 133.952255,346.438843 132.733704,338.001892 
	C131.525787,329.638580 131.783188,321.030151 131.823273,312.531281 
	C131.851959,306.448700 132.102722,300.289368 133.101013,294.305573 
	C135.079010,282.449249 137.121246,270.557922 140.083191,258.921936 
	C144.818832,240.317947 153.093689,223.178223 163.971085,207.363464 
	C171.059113,197.058121 178.785828,187.287323 188.773743,179.497208 
	C190.054520,178.498276 190.820786,176.180023 190.912369,174.425278 
	C191.430038,164.506348 190.713989,154.425446 192.218323,144.677521 
	C194.718414,128.477127 198.100235,112.369629 201.983841,96.435822 
	C208.146317,71.152168 219.051239,47.653587 231.189117,24.778252 
	C234.856354,17.866861 237.640381,9.916499 244.992691,5.633702 
	C247.987503,3.889199 251.435654,2.922981 254.338776,1.301330 
	C255.714355,1.000000 257.428711,1.000000 259.571533,0.999998 
	C260.290009,1.638307 260.547760,2.816537 260.874664,2.836046 
	C269.278046,3.337574 274.014313,8.924539 277.716492,15.425993 
	C295.352814,46.397514 308.984955,79.041359 316.782288,113.871269 
	C319.448578,125.781387 320.595886,138.064606 321.900238,150.234894 
	C322.761780,158.273682 322.577026,166.420547 323.073639,174.505936 
	C323.173706,176.135284 323.766510,178.272018 324.918121,179.219223 
	C345.068848,195.793015 358.108765,217.295013 367.924347,241.008759 
	C374.484314,256.857147 378.122162,273.544403 380.836578,290.388306 
	C381.959961,297.359253 381.780701,304.557220 381.962128,311.657898 
	C382.132874,318.340637 381.639130,325.055237 382.084290,331.712555 
	C382.726746,341.321350 375.761078,350.307617 367.358032,352.354401 
	C358.494965,354.513275 349.862946,351.816437 344.195343,343.488556 
	C334.144958,328.720734 319.801544,319.591522 303.882690,312.555969 
	C302.855347,312.101929 300.632355,312.978546 299.694733,313.944153 
	C296.380859,317.357025 293.384247,321.077911 289.738831,325.293091 
	C291.864288,329.592194 294.261475,334.944092 292.368317,341.300568 
	C290.989349,345.930328 288.197815,348.908539 284.293182,351.337341 
	C283.265839,351.976379 282.115326,353.431183 282.099854,354.526672 
	C281.940002,365.823792 282.001678,377.124084 282.001678,388.267548 
	C287.741058,389.124420 293.134369,389.929626 299.357269,390.858704 
	C316.750671,376.470947 330.530884,374.284363 345.239685,383.669952 
	C356.836212,391.069580 362.890106,407.108032 360.460724,416.379639 
	C366.290131,422.062500 372.565216,426.768036 377.028107,432.811798 
	C387.742249,447.321075 389.983124,463.505615 383.098053,480.399841 
	C375.833740,498.224731 362.555847,508.569672 343.332703,511.085541 
	C342.620605,511.178711 341.992584,511.914246 341.662689,512.675171 
	C285.645782,513.000000 229.291550,513.000000 172.468658,513.000000 
M344.946716,398.660767 
	C333.285553,385.274200 315.533081,386.469086 306.302094,401.261841 
	C303.043701,406.483582 301.138397,406.882294 295.864349,403.183655 
	C290.874146,399.684113 285.468170,398.980286 279.695923,400.509338 
	C272.874146,402.316376 270.724030,400.781372 270.654755,393.818481 
	C270.598358,388.153137 270.641754,382.486847 270.641510,376.820953 
	C270.641174,369.024902 270.641418,361.228882 270.641418,353.159790 
	C261.378448,353.159790 252.635513,353.159790 243.285233,353.159790 
	C243.285233,355.106018 243.285294,356.893738 243.285187,358.681488 
	C243.284470,370.513184 243.328552,382.345093 243.264969,394.176453 
	C243.230927,400.512451 240.740768,402.466217 234.853836,400.722778 
	C228.500488,398.841217 222.784409,399.686310 217.412094,403.700684 
	C213.238312,406.819458 210.796478,406.192596 207.987656,401.802979 
	C200.931732,390.776001 189.799255,386.660645 178.900986,391.050537 
	C167.976425,395.450989 162.478500,406.378326 165.317734,418.919800 
	C166.244598,423.013977 164.896057,425.170990 161.450607,426.894745 
	C143.599396,435.825989 135.052719,452.845398 139.291824,470.837067 
	C143.516724,488.768463 158.889404,500.664551 178.600403,500.707672 
	C230.759567,500.821747 282.919159,500.748108 335.078583,500.740448 
	C336.410126,500.740265 337.746490,500.692963 339.072510,500.575958 
	C357.373993,498.961029 371.798645,486.517059 374.929443,469.662048 
	C378.291443,451.562714 369.945709,435.368103 352.804382,427.026001 
	C349.151398,425.248169 347.431580,423.087799 348.678467,418.770966 
	C350.681000,411.838165 349.472687,405.256714 344.946716,398.660767 
M210.404205,106.988640 
	C205.505569,126.596359 201.578278,146.453354 202.128967,166.691132 
	C202.775833,190.462814 203.930435,214.279694 206.332550,237.927887 
	C208.708282,261.316071 214.325470,284.157074 223.054184,306.129181 
	C225.453491,312.168732 229.550674,315.002838 236.033813,314.951172 
	C250.027191,314.839661 264.022644,314.842621 278.016083,314.949707 
	C284.509308,314.999390 288.811737,312.209137 290.920990,306.065216 
	C293.298553,299.139771 295.962372,292.296936 297.995544,285.271759 
	C306.139191,257.132904 309.373932,228.253250 311.499664,199.111832 
	C315.482574,144.510956 304.241425,93.165314 280.056824,44.401207 
	C279.269928,42.814636 276.665070,41.231728 274.870453,41.188404 
	C263.048828,40.902973 251.216141,41.118629 239.389175,40.984440 
	C236.512756,40.951805 234.935104,41.889557 233.655045,44.529987 
	C224.037354,64.368996 216.227371,84.866615 210.404205,106.988640 
M148.589951,341.296936 
	C153.870316,343.421753 157.431824,341.158997 160.514893,336.949127 
	C171.491562,321.960663 185.627335,310.901794 202.663147,303.529083 
	C204.914581,302.554688 207.178162,301.608307 209.606201,300.576691 
	C197.966095,265.465179 193.314011,229.535843 190.671844,192.786621 
	C183.364319,200.882401 176.252594,208.861206 170.604034,217.767914 
	C148.226486,253.053085 140.604080,292.051056 143.194351,333.303467 
	C143.360413,335.947968 146.244873,338.421814 148.589951,341.296936 
M339.765228,321.723663 
	C344.525299,327.050598 349.450867,332.241364 353.985168,337.753998 
	C356.835876,341.219696 360.075165,343.052826 364.394501,341.679382 
	C368.843048,340.264893 370.853394,336.895325 371.071838,332.201233 
	C371.863922,315.182922 371.147339,298.265137 367.950745,281.503418 
	C362.214508,251.424744 350.927734,223.881439 330.667023,200.488770 
	C328.346436,197.809464 325.791107,195.333511 322.435791,191.808487 
	C320.712677,229.691742 315.940430,265.621643 304.352020,300.773438 
	C317.459534,305.556152 329.106262,312.150055 339.765228,321.723663 
M279.584167,329.945312 
	C278.606232,326.336975 276.339417,325.205933 272.575867,325.318665 
	C263.254730,325.597900 253.919601,325.409821 244.590088,325.410004 
	C235.659531,325.410187 235.659515,325.410492 232.629791,333.871185 
	C230.958710,338.537750 233.051712,342.011261 238.012665,342.071167 
	C250.672241,342.224060 263.336121,342.224121 275.995728,342.070953 
	C280.932892,342.011200 282.987976,338.560486 281.295044,333.856293 
	C280.901520,332.762756 280.376740,331.716400 279.584167,329.945312 
M252.193527,14.445833 
	C246.177261,17.944550 244.918228,24.545959 241.010117,29.974617 
	C252.125229,29.974617 262.239075,29.974617 272.855194,29.974617 
	C270.811066,26.373613 269.126831,23.333698 267.373962,20.333866 
	C263.701538,14.048921 259.972900,12.468225 252.193527,14.445833 
z"/>
<path fill="#FEFEFF" opacity="1.000000" stroke="none" 
	d="
M345.158966,398.961060 
	C349.472687,405.256714 350.681000,411.838165 348.678467,418.770966 
	C347.431580,423.087799 349.151398,425.248169 352.804382,427.026001 
	C369.945709,435.368103 378.291443,451.562714 374.929443,469.662048 
	C371.798645,486.517059 357.373993,498.961029 339.072510,500.575958 
	C337.746490,500.692963 336.410126,500.740265 335.078583,500.740448 
	C282.919159,500.748108 230.759567,500.821747 178.600403,500.707672 
	C158.889404,500.664551 143.516724,488.768463 139.291824,470.837067 
	C135.052719,452.845398 143.599396,435.825989 161.450607,426.894745 
	C164.896057,425.170990 166.244598,423.013977 165.317734,418.919800 
	C162.478500,406.378326 167.976425,395.450989 178.900986,391.050537 
	C189.799255,386.660645 200.931732,390.776001 207.987656,401.802979 
	C210.796478,406.192596 213.238312,406.819458 217.412094,403.700684 
	C222.784409,399.686310 228.500488,398.841217 234.853836,400.722778 
	C240.740768,402.466217 243.230927,400.512451 243.264969,394.176453 
	C243.328552,382.345093 243.284470,370.513184 243.285187,358.681488 
	C243.285294,356.893738 243.285233,355.106018 243.285233,353.159790 
	C252.635513,353.159790 261.378448,353.159790 270.641418,353.159790 
	C270.641418,361.228882 270.641174,369.024902 270.641510,376.820953 
	C270.641754,382.486847 270.598358,388.153137 270.654755,393.818481 
	C270.724030,400.781372 272.874146,402.316376 279.695923,400.509338 
	C285.468170,398.980286 290.874146,399.684113 295.864349,403.183655 
	C301.138397,406.882294 303.043701,406.483582 306.302094,401.261841 
	C315.533081,386.469086 333.285553,385.274200 345.158966,398.961060 
z"/>
<path fill="#93C1FF" opacity="1.000000" stroke="none" 
	d="
M210.532471,106.598579 
	C216.227371,84.866615 224.037354,64.368996 233.655045,44.529987 
	C234.935104,41.889557 236.512756,40.951805 239.389175,40.984440 
	C251.216141,41.118629 263.048828,40.902973 274.870453,41.188404 
	C276.665070,41.231728 279.269928,42.814636 280.056824,44.401207 
	C304.241425,93.165314 315.482574,144.510956 311.499664,199.111832 
	C309.373932,228.253250 306.139191,257.132904 297.995544,285.271759 
	C295.962372,292.296936 293.298553,299.139771 290.920990,306.065216 
	C288.811737,312.209137 284.509308,314.999390 278.016083,314.949707 
	C264.022644,314.842621 250.027191,314.839661 236.033813,314.951172 
	C229.550674,315.002838 225.453491,312.168732 223.054184,306.129181 
	C214.325470,284.157074 208.708282,261.316071 206.332550,237.927887 
	C203.930435,214.279694 202.775833,190.462814 202.128967,166.691132 
	C201.578278,146.453354 205.505569,126.596359 210.532471,106.598579 
M223.120819,112.773384 
	C220.223969,119.903519 219.418274,127.189812 220.993088,134.798096 
	C224.908463,153.714111 244.048935,166.861984 262.862457,163.421509 
	C283.151642,159.711166 296.620789,141.196289 293.303497,121.576767 
	C290.487915,104.924423 278.499329,93.221397 261.677948,90.704521 
	C246.002869,88.359169 231.164764,96.651634 223.120819,112.773384 
z"/>
<path fill="#FDFEFF" opacity="1.000000" stroke="none" 
	d="
M148.227341,341.135986 
	C146.244873,338.421814 143.360413,335.947968 143.194351,333.303467 
	C140.604080,292.051056 148.226486,253.053085 170.604034,217.767914 
	C176.252594,208.861206 183.364319,200.882401 190.671844,192.786621 
	C193.314011,229.535843 197.966095,265.465179 209.606201,300.576691 
	C207.178162,301.608307 204.914581,302.554688 202.663147,303.529083 
	C185.627335,310.901794 171.491562,321.960663 160.514893,336.949127 
	C157.431824,341.158997 153.870316,343.421753 148.227341,341.135986 
z"/>
<path fill="#FDFEFF" opacity="1.000000" stroke="none" 
	d="
M339.504578,321.483643 
	C329.106262,312.150055 317.459534,305.556152 304.352020,300.773438 
	C315.940430,265.621643 320.712677,229.691742 322.435791,191.808487 
	C325.791107,195.333511 328.346436,197.809464 330.667023,200.488770 
	C350.927734,223.881439 362.214508,251.424744 367.950745,281.503418 
	C371.147339,298.265137 371.863922,315.182922 371.071838,332.201233 
	C370.853394,336.895325 368.843048,340.264893 364.394501,341.679382 
	C360.075165,343.052826 356.835876,341.219696 353.985168,337.753998 
	C349.450867,332.241364 344.525299,327.050598 339.504578,321.483643 
z"/>
<path fill="#D2E6FF" opacity="1.000000" stroke="none" 
	d="
M279.748291,330.296814 
	C280.376740,331.716400 280.901520,332.762756 281.295044,333.856293 
	C282.987976,338.560486 280.932892,342.011200 275.995728,342.070953 
	C263.336121,342.224121 250.672241,342.224060 238.012665,342.071167 
	C233.051712,342.011261 230.958710,338.537750 232.629791,333.871185 
	C235.659515,325.410492 235.659531,325.410187 244.590088,325.410004 
	C253.919601,325.409821 263.254730,325.597900 272.575867,325.318665 
	C276.339417,325.205933 278.606232,326.336975 279.748291,330.296814 
z"/>
<path fill="#FAFCFF" opacity="1.000000" stroke="none" 
	d="
M252.539825,14.286470 
	C259.972900,12.468225 263.701538,14.048921 267.373962,20.333866 
	C269.126831,23.333698 270.811066,26.373613 272.855194,29.974617 
	C262.239075,29.974617 252.125229,29.974617 241.010117,29.974617 
	C244.918228,24.545959 246.177261,17.944550 252.539825,14.286470 
z"/>
<path fill="#1572FF" opacity="1.000000" stroke="none" 
	d="
M223.278458,112.424950 
	C231.164764,96.651634 246.002869,88.359169 261.677948,90.704521 
	C278.499329,93.221397 290.487915,104.924423 293.303497,121.576767 
	C296.620789,141.196289 283.151642,159.711166 262.862457,163.421509 
	C244.048935,166.861984 224.908463,153.714111 220.993088,134.798096 
	C219.418274,127.189812 220.223969,119.903519 223.278458,112.424950 
M246.075470,103.304176 
	C244.780014,104.049324 243.426392,104.709732 242.198227,105.552910 
	C231.628876,112.809067 227.847137,126.795967 233.307175,138.307968 
	C238.724976,149.730865 251.710129,155.723877 263.770966,152.367783 
	C278.337646,148.314453 286.493134,133.349792 281.911896,119.080643 
	C277.249939,104.559998 262.041626,97.604988 246.075470,103.304176 
z"/>
<path fill="#FDFEFF" opacity="1.000000" stroke="none" 
	d="
M246.437286,103.163544 
	C262.041626,97.604988 277.249939,104.559998 281.911896,119.080643 
	C286.493134,133.349792 278.337646,148.314453 263.770966,152.367783 
	C251.710129,155.723877 238.724976,149.730865 233.307175,138.307968 
	C227.847137,126.795967 231.628876,112.809067 242.198227,105.552910 
	C243.426392,104.709732 244.780014,104.049324 246.437286,103.163544 
z"/>
</svg>